<svg width="39" height="26" viewBox="0 0 39 26" fill="none" xmlns="http://www.w3.org/2000/svg">
<path fill-rule="evenodd" clip-rule="evenodd" d="M39 22.75C39 24.5375 37.5375 26 35.75 26H3.25C1.4625 26 0 24.5375 0 22.75V3.25C0 1.4625 1.4625 0 3.25 0H35.75C37.5375 0 39 1.4625 39 3.25V22.75Z" fill="white"/>
<path d="M12.1973 9C14.6258 9 16.3291 10.7316 16.3291 13.3418C16.3291 13.6205 16.3014 13.8438 16.2734 14.0391H9.74121C10.0482 15.2255 11.0249 15.9237 12.1973 15.9238C13.2022 15.9238 13.9562 15.5333 14.5566 14.8496L15.7568 15.9521C14.9613 16.8592 13.7746 17.4873 12.1973 17.4873C10.0619 17.4872 8.38748 15.966 8.02441 14.04H6V12.4756H8.02441C8.38756 10.5497 10.062 9.00011 12.1973 9ZM27.1328 9C29.3101 9.00011 31.0129 10.5357 31.376 12.4756H33.3994V14.0391H31.376C30.999 15.9652 29.2959 17.4872 27.1328 17.4873C24.6624 17.4873 22.8195 15.5332 22.8193 13.2441C22.8193 10.969 24.6763 9 27.1328 9ZM19.3018 15.7568H22.4844V17.4316H19.3301C18.1716 17.4316 17.5439 16.8031 17.5439 15.6445V9.05664H19.3018V15.7568ZM27.1328 10.6475C25.6954 10.6475 24.5783 11.7638 24.5781 13.2432C24.5781 14.7228 25.6949 15.8398 27.1328 15.8398L27.4023 15.8271C28.7297 15.6993 29.6865 14.632 29.6865 13.2578C29.6865 11.7923 28.5702 10.6476 27.1328 10.6475ZM12.1973 10.5361C11.458 10.5362 10.8576 10.7871 10.4111 11.2334C10.1041 11.5404 9.8521 11.9601 9.72656 12.4766H14.5986C14.5147 11.988 14.2907 11.5408 13.9697 11.2197C13.5512 10.8009 12.9367 10.5361 12.1973 10.5361Z" fill="#003933"/>
<path d="M35.75 0H3.25C1.4625 0 0 1.4625 0 3.25V22.75C0 24.5375 1.4625 26 3.25 26H35.75C37.5375 26 39 24.5375 39 22.75V3.25C39 1.4625 37.5375 0 35.75 0ZM35.75 0.65C37.1839 0.65 38.35 1.8161 38.35 3.25V22.75C38.35 24.1839 37.1839 25.35 35.75 25.35H3.25C1.8161 25.35 0.65 24.1839 0.65 22.75V3.25C0.65 1.8161 1.8161 0.65 3.25 0.65H35.75Z" fill="#B3B3B3"/>
</svg>
